<?xml version="1.0" encoding="UTF-8" standalone="no"?>
<!-- Created with Inkscape (http://www.inkscape.org/) -->

<svg
   xmlns:dc="http://purl.org/dc/elements/1.1/"
   xmlns:cc="http://creativecommons.org/ns#"
   xmlns:rdf="http://www.w3.org/1999/02/22-rdf-syntax-ns#"
   xmlns:svg="http://www.w3.org/2000/svg"
   xmlns="http://www.w3.org/2000/svg"
   xmlns:sodipodi="http://sodipodi.sourceforge.net/DTD/sodipodi-0.dtd"
   xmlns:inkscape="http://www.inkscape.org/namespaces/inkscape"
   id="svg3336"
   version="1.1"
   inkscape:version="0.92.5 (2060ec1f9f, 2020-04-08)"
   width="124"
   height="94.108299"
   viewBox="0 0 116.25001 88.226521"
   sodipodi:docname="logo.svg"
   inkscape:export-filename="/home/mvera/Imágenes/Logo LS/logo.png"
   inkscape:export-xdpi="105.68422"
   inkscape:export-ydpi="105.68422">
  <metadata
     id="metadata3342">
    <rdf:RDF>
      <cc:Work
         rdf:about="">
        <dc:format>image/svg+xml</dc:format>
        <dc:type
           rdf:resource="http://purl.org/dc/dcmitype/StillImage" />
        <dc:title />
      </cc:Work>
    </rdf:RDF>
  </metadata>
  <defs
     id="defs3340" />
  <sodipodi:namedview
     pagecolor="#ffffff"
     bordercolor="#666666"
     borderopacity="1"
     objecttolerance="10"
     gridtolerance="10"
     guidetolerance="10"
     inkscape:pageopacity="0"
     inkscape:pageshadow="2"
     inkscape:window-width="1920"
     inkscape:window-height="1014"
     id="namedview3338"
     showgrid="false"
     inkscape:zoom="8.9504951"
     inkscape:cx="92.298352"
     inkscape:cy="35.85166"
     inkscape:window-x="0"
     inkscape:window-y="34"
     inkscape:window-maximized="1"
     inkscape:current-layer="g819" />
  <g
     id="g819"
     inkscape:export-xdpi="105"
     inkscape:export-ydpi="105"
     transform="translate(-7.0459489,-5.9390145)">
    <g
       id="g4595"
       transform="matrix(0.92427152,0,0,0.92427152,0.55414061,-3.8766405)"
       inkscape:export-xdpi="105"
       inkscape:export-ydpi="105">
      <path
         style="fill:#0073ff;fill-opacity:1;fill-rule:evenodd;stroke:#0073ff;stroke-width:0.84155858px;stroke-linecap:butt;stroke-linejoin:miter;stroke-opacity:1"
         d="m 34.365424,33.586417 -6.327779,49.177434 64.760873,7.957803 c -1.046523,5.284645 1.143948,14.182466 -22.147229,14.932056 L 22.401966,101.36187 C 11.942236,99.937598 7.0261249,91.20544 7.472359,80.081446 L 12.020452,46.819618 C 14.34382,38.003593 24.891902,32.004492 34.365424,33.586417 Z"
         id="path3346"
         inkscape:connector-curvature="0"
         sodipodi:nodetypes="cccccccc" />
      <path
         style="fill:#ff3b00;fill-opacity:1;fill-rule:evenodd;stroke:#ff3b00;stroke-width:0.84155858px;stroke-linecap:butt;stroke-linejoin:miter;stroke-opacity:1"
         d="m 58.53601,19.232372 53.14697,10.86692 6.72327,42.373019 c 10.30949,-0.289386 15.78088,-6.867174 13.43804,-14.097197 L 126.9092,28.489848 c -2.58457,-5.562862 -6.68365,-8.45439 -11.86459,-9.65666 L 77.275685,11.322453 C 65.364424,9.8288291 61.241563,14.522986 58.53601,19.232372 Z"
         id="path4157"
         inkscape:connector-curvature="0"
         sodipodi:nodetypes="cccccccc" />
      <g
         id="g4588">
        <g
           id="g823">
          <path
             style="opacity:1;fill:#cccccc;fill-opacity:1;fill-rule:evenodd;stroke:#9b9b9b;stroke-width:0.85593748;stroke-linecap:butt;stroke-linejoin:miter;stroke-miterlimit:4;stroke-dasharray:none;stroke-opacity:1"
             d="m 37.693778,40.258001 1.794523,-9.523164 c 1.26483,-8.158565 9.520932,-10.342165 15.666007,-9.231568 l 44.195854,8.869745 c 5.210828,1.070747 8.543988,2.962962 9.260088,6.000123 l 1.70773,9.776252 -49.5515,-9.90669 c -3.344402,-0.942647 -4.933413,0.290632 -4.910652,3.521809 -0.01891,2.556767 -0.0851,3.359761 2.398582,3.939009 l 43.56354,8.308181 c 12.59145,2.698645 11.32332,6.804805 11.63465,10.022261"
             id="path4159"
             inkscape:connector-curvature="0"
             sodipodi:nodetypes="ccccccccccc" />
        </g>
        <g
           id="g820">
          <path
             style="opacity:1;fill:#cccccc;fill-opacity:1;fill-rule:evenodd;stroke:#9b9b9b;stroke-width:0.83580005px;stroke-linecap:butt;stroke-linejoin:miter;stroke-opacity:1"
             d="m 113.38059,60.940705 0.87628,9.794276 c 2.06014,13.206937 -8.56675,17.945926 -20.99485,15.768658 L 42.555531,79.0739 c -5.795206,-0.54532 -9.343508,-3.111744 -9.077793,-9.593376 l 2.343083,-9.476532 51.907588,9.405204 c 5.350425,1.206923 11.227191,1.259489 11.079865,-2.438677 -0.3679,-2.112214 1.146032,-5.170244 -4.051267,-6.001029 L 41.675136,50.891153 c -1.825902,-0.60846 -5.828158,-1.359219 -3.981358,-10.633152"
             id="path4161"
             inkscape:connector-curvature="0"
             sodipodi:nodetypes="ccccccccccc" />
        </g>
      </g>
    </g>
  </g>
</svg>
